<svg width="1522" height="368" viewBox="0 0 1522 368" fill="none" xmlns="http://www.w3.org/2000/svg">
<g clip-path="url(#clip0_1_80)">
<g clip-path="url(#clip1_1_80)">
<path d="M97.5201 -1.30333C100.694 -1.31272 103.869 -1.32211 107.139 -1.33178C113.82 -1.34615 120.5 -1.32555 127.181 -1.27937C135.677 -1.22346 144.17 -1.25571 152.665 -1.31443C160.862 -1.35874 169.057 -1.32757 177.253 -1.30333C181.778 -1.33313 181.778 -1.33313 186.394 -1.36353C215.319 -1.05133 233.997 6.41228 254.831 26.4308C277.275 49.9052 278.486 75.888 278.321 106.611C278.3 112.518 278.371 118.418 278.449 124.325C278.608 158.287 272.34 183.585 247.787 208.533C232.454 222.037 213.799 229.313 193.813 233.067C186.722 232.08 186.722 232.08 181.547 230.613C181.215 229.013 180.883 227.413 180.541 225.764C176.566 209.626 171.339 200.183 157.013 191.36C148.837 188.635 142.569 188.559 133.956 188.475C130.803 188.417 127.65 188.358 124.401 188.298C117.82 188.185 111.242 188.117 104.66 188.068C74.8919 187.433 46.7907 183.057 24.5334 161.92C23.1767 160.633 21.82 159.346 20.4222 158.02C2.56789 139.191 -1.62917 117.197 -1.22655 92C-1.2645 89.625 -1.30245 87.2499 -1.34155 84.8029C-1.21011 60.3211 5.90844 41.4831 22.7893 23.7475C44.7901 2.14857 67.4644 -1.50127 97.5201 -1.30333ZM53.1301 63.0296C48.4005 72.4776 47.5602 80.2748 47.8401 90.62C47.8698 92.3584 47.8994 94.0968 47.93 95.8878C48.4468 109.426 49.9243 117.439 58.8801 127.573C69.6844 134.086 77.8198 135.872 90.3614 136.016C93.5349 136.081 96.7085 136.146 99.9782 136.213C103.299 136.249 106.619 136.283 109.94 136.313C152.086 136.817 181.719 142.127 213.44 171.733C228.942 153.648 228.991 138.964 228.927 115.92C228.966 113.118 229.006 110.316 229.047 107.429C229.056 91.1442 228.309 76.0834 220.8 61.3333C210.843 51.3766 202.662 48.7762 188.861 48.6714C185.102 48.636 185.102 48.636 181.267 48.5999C178.56 48.5895 175.854 48.5791 173.066 48.5683C170.279 48.5544 167.493 48.5404 164.622 48.526C158.722 48.5028 152.822 48.4867 146.922 48.4773C137.908 48.4535 128.896 48.3774 119.883 48.3C114.15 48.284 108.418 48.2711 102.686 48.2617C99.9941 48.2314 97.3026 48.2011 94.5296 48.1699C77.182 48.2204 65.1104 49.2722 53.1301 63.0296Z" fill="#145AF2"/>
<path d="M294.4 134.933C322.381 144.573 345.478 154.98 360.64 181.547C368.093 197.659 369.2 211.448 369.073 229.08C369.122 231.477 369.171 233.874 369.222 236.344C369.206 260.999 362.189 279.717 345.249 297.63C334.43 308.18 322.445 318.933 306.667 318.933C305.857 320.553 305.047 322.172 304.213 323.84C300.689 323.894 300.689 323.894 297.093 323.948C288.295 324.092 279.498 324.281 270.702 324.484C266.909 324.565 263.117 324.634 259.324 324.69C225.379 324.325 225.379 324.325 196.573 340.247C190.477 349.75 188.543 356.98 186.453 368C162.67 371.058 144.691 363.697 125.12 350.827C106.947 335.635 92.9015 315.45 90.1472 291.382C89.2736 276.645 89.6509 261.922 90.0067 247.173C90.0683 242.698 90.1243 238.223 90.1744 233.747C90.3082 222.887 90.5192 212.031 90.7734 201.173C92.234 201.261 93.6947 201.348 95.1997 201.437C101.799 201.823 108.399 202.189 115 202.553C117.299 202.691 119.598 202.828 121.967 202.97C125.264 203.148 125.264 203.148 128.628 203.33C130.657 203.445 132.687 203.561 134.779 203.68C140 203.994 140 203.994 144.747 201.173C144.158 205.04 144.158 205.04 143.558 208.984C141.747 223.574 141.746 238.163 141.68 252.847C141.629 255.657 141.579 258.466 141.527 261.361C141.456 276.666 141.75 288.446 149.653 301.76C153.297 304.189 153.297 304.189 157.013 306.667C158.146 305.569 159.278 304.472 160.444 303.341C180.018 285.199 199.837 274.672 226.646 274.256C229.713 274.186 232.781 274.117 235.942 274.045C242.349 273.918 248.758 273.809 255.166 273.719C281.73 273.267 281.73 273.267 306.667 264.96C316.464 253.921 316.869 244.255 316.94 229.847C316.975 226.668 317.01 223.49 317.045 220.215C316.495 211.229 315.143 204.504 311.573 196.267C302.734 190.865 294.771 190.886 284.587 191.36C285.09 189.697 285.592 188.033 286.11 186.319C291.037 169.3 294.4 152.712 294.4 134.933Z" fill="#145AF1"/>
<path d="M161.92 294.4C163.539 295.21 165.158 296.019 166.827 296.853C162.779 300.092 158.731 303.33 154.56 306.667C153.75 305.047 152.941 303.428 152.107 301.76C155.345 299.331 158.583 296.902 161.92 294.4Z" fill="black"/>
<path d="M203.627 333.653C205.246 334.463 206.865 335.273 208.533 336.107C204.485 339.345 200.437 342.583 196.267 345.92C200.867 336.413 200.867 336.413 203.627 333.653Z" fill="black"/>
<path d="M252.693 203.627C252.693 206.056 252.693 208.484 252.693 210.987C251.074 210.177 249.455 209.368 247.787 208.533C249.406 206.914 251.025 205.295 252.693 203.627Z" fill="black"/>
<path d="M117.76 348.373C120.189 349.183 122.618 349.992 125.12 350.827C122.691 350.827 120.262 350.827 117.76 350.827C117.76 350.017 117.76 349.207 117.76 348.373Z" fill="black"/>
<path d="M237.973 215.893C239.593 216.703 241.212 217.513 242.88 218.347C240.451 218.347 238.022 218.347 235.52 218.347C236.33 217.537 237.139 216.727 237.973 215.893Z" fill="black"/>
<path d="M338.56 152.107C340.989 152.916 343.418 153.726 345.92 154.56C343.491 154.56 341.062 154.56 338.56 154.56C338.56 153.75 338.56 152.941 338.56 152.107Z" fill="black"/>
<path d="M29.4399 9.81335C31.0591 10.623 32.6783 11.4326 34.3466 12.2667C31.9178 12.2667 29.489 12.2667 26.9866 12.2667C27.7962 11.4571 28.6058 10.6475 29.4399 9.81335Z" fill="black"/>
<path d="M348.373 296.853C349.183 298.473 349.992 300.092 350.827 301.76C349.207 300.95 347.588 300.141 345.92 299.307C346.73 298.497 347.539 297.688 348.373 296.853Z" fill="black"/>
<path d="M56.4268 61.3334C58.8556 62.5478 58.8556 62.5478 61.3334 63.7867C58.9046 65.0011 58.9046 65.0011 56.4268 66.24C56.4268 64.6208 56.4268 63.0016 56.4268 61.3334Z" fill="black"/>
<path d="M336.107 306.667C341.013 309.12 341.013 309.12 341.013 309.12L336.107 306.667Z" fill="black"/>
<path d="M171.733 287.04C176.64 289.493 176.64 289.493 176.64 289.493L171.733 287.04Z" fill="black"/>
<path d="M230.613 220.8C235.52 223.253 235.52 223.253 235.52 223.253L230.613 220.8Z" fill="black"/>
<path d="M159.467 196.267C164.373 198.72 164.373 198.72 164.373 198.72L159.467 196.267Z" fill="black"/>
<path d="M34.3467 174.187C39.2533 176.64 39.2533 176.64 39.2533 176.64L34.3467 174.187Z" fill="black"/>
<path d="M24.5334 166.827C29.4401 169.28 29.4401 169.28 29.4401 169.28L24.5334 166.827Z" fill="black"/>
<path d="M198.72 154.56C203.627 157.013 203.627 157.013 203.627 157.013L198.72 154.56Z" fill="black"/>
<path d="M331.2 147.2C336.107 149.653 336.107 149.653 336.107 149.653L331.2 147.2Z" fill="black"/>
<path d="M188.907 147.2C193.813 149.653 193.813 149.653 193.813 149.653L188.907 147.2Z" fill="black"/>
<path d="M63.7866 125.12C68.6933 127.573 68.6933 127.573 68.6933 127.573L63.7866 125.12Z" fill="black"/>
<path d="M206.08 56.4267C210.987 58.88 210.987 58.88 210.987 58.88L206.08 56.4267Z" fill="black"/>
<path d="M245.333 14.72C250.24 17.1734 250.24 17.1734 250.24 17.1734L245.333 14.72Z" fill="black"/>
<path d="M235.52 7.35999C240.427 9.81332 240.427 9.81332 240.427 9.81332L235.52 7.35999Z" fill="black"/>
<path d="M34.3467 7.35999C39.2533 9.81332 39.2533 9.81332 39.2533 9.81332L34.3467 7.35999Z" fill="black"/>
</g>
<path d="M471.04 199.155C471.04 150.928 497.222 126.677 544.071 126.677C582.377 126.677 608.282 143.212 614.069 174.077H577.417C571.904 165.534 563.087 160.849 552.339 160.849H535.803C517.065 160.849 504.111 175.18 504.111 199.155C504.111 223.131 517.065 237.461 535.803 237.461H552.339C563.636 237.461 572.731 232.225 578.243 222.855H614.344C608.557 257.304 582.377 273.01 544.071 273.01C495.294 273.01 471.04 246.83 471.04 199.155Z" fill="white"/>
<path d="M662.407 94.9877V138.805C670.398 130.538 681.973 126.68 698.783 126.68C743.429 126.68 764.373 147.348 764.373 191.442V271.361H728.547V199.709C728.547 174.08 722.207 161.954 704.845 161.954H683.901C666.541 161.954 662.407 174.08 662.407 193.646V271.361H626.581V94.9877H662.407Z" fill="white"/>
<path d="M776.738 199.155C776.738 159.196 804.021 126.677 844.256 126.677C862.445 126.677 876.775 133.291 887.248 144.314V128.055H923.074V271.356H887.248V255.098C876.775 266.398 862.445 273.012 844.256 273.012C804.021 273.01 776.738 240.217 776.738 199.155ZM841.501 237.461H858.036C876.775 237.461 887.248 225.886 887.248 207.422V190.888C887.248 172.423 876.775 160.849 858.036 160.849H841.501C822.762 160.849 809.809 175.18 809.809 199.155C809.809 223.131 822.762 237.461 841.501 237.461Z" fill="white"/>
<path d="M995.597 271.361H979.064C952.332 271.361 934.97 253.999 934.97 227.267V94.9877H970.796V128.058H995.597V163.883H970.796V227.267C970.796 235.535 970.796 235.535 979.064 235.535H995.597V271.361Z" fill="white"/>
<path d="M1007.63 271.361V139.081C1007.63 112.35 1024.99 94.9877 1051.72 94.9877H1068.25V130.814H1051.72C1043.45 130.814 1043.45 130.814 1043.45 139.081V141.837H1068.25V177.663H1043.45V271.361H1007.63Z" fill="white"/>
<path d="M1116.11 94.9877V271.361H1080.28V94.9877H1116.11Z" fill="white"/>
<path d="M1128.18 199.155C1128.18 152.582 1156.02 126.677 1201.21 126.677C1248.34 126.677 1274.24 154.235 1274.24 199.155C1274.24 246.556 1246.41 273.012 1201.21 273.012C1154.09 273.01 1128.18 245.177 1128.18 199.155ZM1192.95 237.461H1209.48C1228.22 237.461 1241.17 223.131 1241.17 199.155C1241.17 175.18 1228.22 160.849 1209.48 160.849H1192.95C1174.21 160.849 1161.25 175.18 1161.25 199.155C1161.25 223.131 1174.21 237.461 1192.95 237.461Z" fill="white"/>
<path d="M1306.66 128.055L1336.14 237.737H1342.48L1374.17 128.055H1417.17L1448.86 237.737H1455.2L1484.68 128.055H1521.61L1483.03 271.356H1421.02L1395.67 183.447L1370.32 271.356H1308.31L1269.73 128.055H1306.66Z" fill="white"/>
</g>
<defs>
<clipPath id="clip0_1_80">
<rect width="1521.61" height="368" fill="white"/>
</clipPath>
<clipPath id="clip1_1_80">
<rect width="368" height="368" fill="white"/>
</clipPath>
</defs>
</svg>
